<svg width="150" height="171" viewBox="0 0 150 171" fill="none" xmlns="http://www.w3.org/2000/svg">
<path fill-rule="evenodd" clip-rule="evenodd" d="M73.5991 0.500486C74.3921 0.269858 75.2343 0.269858 76.0274 0.500485L120.658 13.4802C125.487 14.8848 124.473 22.0028 119.443 22.0028H30.183C25.1532 22.0028 24.1392 14.8848 28.9688 13.4802L73.5991 0.500486ZM72.3062 169.623C73.8092 170.684 75.8172 170.684 77.3202 169.623L138.768 126.257C142.234 123.811 140.504 118.357 136.261 118.357H13.365C9.12264 118.357 7.39194 123.811 10.858 126.257L72.3062 169.623ZM149.999 27.1743C149.999 24.7731 148.052 22.8265 145.651 22.8265H4.3478C1.94657 22.8265 0 24.7731 0 27.1743V113.283C0 115.684 1.94657 117.63 4.3478 117.63H145.651C148.052 117.63 149.999 115.684 149.999 113.283V27.1743Z" fill="#FFC728"/>
<path d="M45.3393 71.6447L68.7599 95.0653C69.1428 95.4482 69.7717 95.4196 70.1182 95.0037L109.695 47.5112" stroke="#FDFFFF" stroke-width="24.1335" stroke-linecap="round"/>
</svg>
