<svg width="142" height="27" viewBox="0 0 142 27" fill="none" xmlns="http://www.w3.org/2000/svg"><path d="M13.2362 0.418823L16.143 9.4016H25.5497L17.9395 14.9533L20.8464 23.936L13.2362 18.3844L5.62607 23.936L8.53289 14.9533L0.922741 9.4016H10.3294L13.2362 0.418823Z" fill="#FFC728"></path><path d="M42.119 0.418823L45.0258 9.4016H54.4325L46.8224 14.9533L49.7292 23.936L42.119 18.3844L34.5089 23.936L37.4157 14.9533L29.8056 9.4016H39.2122L42.119 0.418823Z" fill="#FFC728"></path><path d="M71.0018 0.418823L73.9087 9.4016H83.3153L75.7052 14.9533L78.612 23.936L71.0018 18.3844L63.3917 23.936L66.2985 14.9533L58.6884 9.4016H68.095L71.0018 0.418823Z" fill="#FFC728"></path><path d="M99.8807 0.418823L102.788 9.4016H112.194L104.584 14.9533L107.491 23.936L99.8807 18.3844L92.2706 23.936L95.1774 14.9533L87.5673 9.4016H96.9739L99.8807 0.418823Z" fill="#FFC728"></path><path d="M128.764 0.418823L131.67 9.4016H141.077L133.467 14.9533L136.374 23.936L128.764 18.3844L121.153 23.936L124.06 14.9533L116.45 9.4016H125.857L128.764 0.418823Z" fill="#FFC728"></path></svg>